# xmcd
#
# Track frame offsets:
#	150
#	17982
#	38786
#	56794
#	76207
#	94536
#	113855
#	132026
#	156845
#	172866
#
# Disc length: 2483 seconds
#
# Revision: 0
# Processed by: cddbd v1.5.2PL0 Copyright (c) Steve Scherf et al.
# Submitted via: audiograbber 1.83.01
#
DISCID=7309b10a
DTITLE=—борник - The Best of Love cd1
DYEAR=2006
DGENRE=
TTITLE0=Eternal Flame - Bangles
TTITLE1=Sign your name - Terence Trent D'Arby
TTITLE2=Time after time - Cyndi Lauper
TTITLE3=Lean on me - Bill Withers
TTITLE4=Every day hurts - Sad Cafe
TTITLE5=Heartbreaker - Dionne Warwick
TTITLE6=All out of love - Air Supply
TTITLE7=I still haven't found what I'm looking for - The Chimes
TTITLE8=If you love me - Brownstone
TTITLE9=Let your heart dance - Secret Affair
EXTD=
EXTT0=
EXTT1=
EXTT2=
EXTT3=
EXTT4=
EXTT5=
EXTT6=
EXTT7=
EXTT8=
EXTT9=
PLAYORDER=
